<svg width="43" height="43" viewBox="0 0 43 43" fill="none" xmlns="http://www.w3.org/2000/svg">
<rect width="43" height="43" rx="21.5" fill="#FF9442"/>
<path d="M13.2188 18.4688V24.0879C13.2188 25.0215 12.9258 25.7598 12.3398 26.3027C11.7578 26.8457 10.9609 27.1172 9.94922 27.1172C8.95312 27.1172 8.16211 26.8535 7.57617 26.3262C6.99023 25.7988 6.69141 25.0742 6.67969 24.1523V18.4688H8.4375V24.0996C8.4375 24.6582 8.57031 25.0664 8.83594 25.3242C9.10547 25.5781 9.47656 25.7051 9.94922 25.7051C10.9375 25.7051 11.4395 25.1855 11.4551 24.1465V18.4688H13.2188ZM16.5293 27H14.7715V18.4688H16.5293V27ZM18.5859 27.7324H17.3262L20.4668 18.4688H21.7266L18.5859 27.7324ZM29.1094 18.4688V24.0879C29.1094 25.0215 28.8164 25.7598 28.2305 26.3027C27.6484 26.8457 26.8516 27.1172 25.8398 27.1172C24.8438 27.1172 24.0527 26.8535 23.4668 26.3262C22.8809 25.7988 22.582 25.0742 22.5703 24.1523V18.4688H24.3281V24.0996C24.3281 24.6582 24.4609 25.0664 24.7266 25.3242C24.9961 25.5781 25.3672 25.7051 25.8398 25.7051C26.8281 25.7051 27.3301 25.1855 27.3457 24.1465V18.4688H29.1094ZM33.6035 21.4102L35.2031 18.4688H37.2246L34.7402 22.6992L37.2891 27H35.2441L33.6035 24.0117L31.9629 27H29.918L32.4668 22.6992L29.9824 18.4688H32.0039L33.6035 21.4102Z" fill="white"/>
</svg>
