<svg width="43" height="43" viewBox="0 0 43 43" fill="none" xmlns="http://www.w3.org/2000/svg">
<rect width="43" height="43" rx="21.5" fill="#FF9442"/>
<path d="M29.7869 20.4131L21.8071 8.44352C21.8068 8.44312 21.8065 8.44272 21.8063 8.44226C21.8034 8.438 21.8003 8.43394 21.7973 8.42975C21.7836 8.40987 21.7692 8.39072 21.7542 8.37203C21.3338 7.84976 20.5335 7.885 20.1571 8.42975C20.1542 8.43394 20.1511 8.438 20.1482 8.44226C20.1479 8.44272 20.1476 8.44305 20.1473 8.44352L12.1676 20.4132C11.9038 20.8088 11.956 21.3355 12.2922 21.6718C14.2823 23.6618 15.5489 26.2633 15.894 29.0465C15.7391 29.1717 15.5896 29.3057 15.4478 29.4508C14.5109 30.4092 13.9949 31.6706 13.9949 33.0026C13.9949 33.5534 14.4415 34 14.9924 34H26.962C27.5129 34 27.9595 33.5534 27.9595 33.0026C27.9595 31.6706 27.4436 30.4092 26.5067 29.4508C26.3649 29.3057 26.2154 29.1716 26.0605 29.0464C26.4054 26.2631 27.6721 23.6616 29.6622 21.6718C29.9985 21.3355 30.0507 20.8087 29.7869 20.4131ZM20.9772 19.969C21.5272 19.969 21.9747 20.4164 21.9747 20.9664C21.9747 21.5164 21.5272 21.9639 20.9772 21.9639C20.4272 21.9639 19.9798 21.5164 19.9798 20.9664C19.9798 20.4164 20.4272 19.969 20.9772 19.969ZM16.16 32.0051C16.575 30.8192 17.7 29.9436 18.9823 29.9436H22.9722C24.2544 29.9436 25.3795 30.8192 25.7945 32.0051H16.16ZM24.1854 28.1005C23.7931 28.0004 23.3864 27.9487 22.9722 27.9487H18.9823C18.5681 27.9487 18.1614 28.0004 17.769 28.1006C17.3022 25.4121 16.0899 22.8991 14.2679 20.859L19.9798 12.2912V18.1456C18.8188 18.5574 17.9848 19.6661 17.9848 20.9665C17.9848 22.6165 19.3272 23.9589 20.9772 23.9589C22.6272 23.9589 23.9696 22.6165 23.9696 20.9665C23.9696 19.6661 23.1357 18.5574 21.9747 18.1456V12.2912L27.6866 20.859C25.8646 22.8989 24.6522 25.412 24.1854 28.1005Z" fill="white"/>
</svg>
